<?xml version="1.0" encoding="UTF-8"?>
<svg id="_图层_1" xmlns="http://www.w3.org/2000/svg" version="1.1" viewBox="0 0 1024 1024">
  <!-- Generator: Adobe Illustrator 29.4.0, SVG Export Plug-In . SVG Version: 2.1.0 Build 152)  -->
  <defs>
    <style>
      .st0 {
        fill: #e50012;
      }
    </style>
  </defs>
  <path class="st0" d="M832.69,733.59c0,.21-.06.71-.63.71h-223.52L204.27,330.03c-15.39-15.39-23.86-35.84-23.86-57.59s8.51-41.91,23.96-56.82c15.04-14.52,34.89-22.42,55.88-22.24,21.02.17,40.76,8.43,55.57,23.25l516.66,516.65c.21.21.21.27.21.31h0Z"/>
  <polygon class="st0" points="782.28 814.89 763.61 895.11 823.76 951.38 902.56 927.43 921.23 847.21 861.07 790.94 782.28 814.89"/>
  <path class="st0" d="M102.78,193.38v573.03l111.15,111.15,47.92-99.93V193.38c0-43.86-35.68-79.54-79.54-79.54s-79.54,35.68-79.54,79.54h0Z"/>
  <path class="st0" d="M842.43,196.53l-82.69-82.69H182.32c-43.86,0-79.54,35.68-79.54,79.54s35.68,79.54,79.54,79.54h542.46l117.63-76.38h.01Z"/>
</svg>